<svg width="37" height="36" viewBox="0 0 37 36" fill="none" xmlns="http://www.w3.org/2000/svg">
<path d="M12.2943 33.75C12.74 33.7519 13.1816 33.6658 13.5937 33.4969C14.0058 33.3279 14.3802 33.0794 14.6953 32.7656C15.0105 32.4519 15.2601 32.0791 15.4298 31.6688C15.5995 31.2584 15.6859 30.8187 15.684 30.375V23.625" stroke="#A32929" stroke-linecap="round" stroke-linejoin="round"/>
<path d="M24.7231 33.75C24.2774 33.7519 23.8358 33.6658 23.4237 33.4969C23.0116 33.3279 22.6372 33.0794 22.3221 32.7656C22.0069 32.4519 21.7573 32.0791 21.5876 31.6688C21.4179 31.2584 21.3315 30.8187 21.3334 30.375V23.625" stroke="#A32929" stroke-linecap="round" stroke-linejoin="round"/>
<path d="M21.8983 23.625H24.1581C24.6038 23.6232 25.0454 23.7092 25.4575 23.8781C25.8696 24.0471 26.244 24.2956 26.5591 24.6094C26.8743 24.9232 27.1239 25.296 27.2936 25.7063C27.4632 26.1166 27.5496 26.5563 27.5478 27V28.125C27.5459 28.5688 27.6323 29.0085 27.802 29.4188C27.9717 29.8291 28.2213 30.2019 28.5364 30.5157C28.8516 30.8294 29.226 31.078 29.6381 31.2469C30.0502 31.4159 30.4918 31.5019 30.9374 31.5" stroke="#A32929" stroke-linecap="round" stroke-linejoin="round"/>
<path d="M15.119 23.625H12.8592C12.4135 23.6232 11.9719 23.7092 11.5598 23.8781C11.1477 24.0471 10.7733 24.2956 10.4582 24.6094C10.143 24.9232 9.89341 25.296 9.72372 25.7063C9.55404 26.1166 9.46764 26.5563 9.46951 27V28.125C9.47138 28.5688 9.38498 29.0085 9.21529 29.4188C9.0456 29.8291 8.79599 30.2019 8.48086 30.5157C8.16573 30.8294 7.79131 31.078 7.37921 31.2469C6.96712 31.4159 6.5255 31.5019 6.07983 31.5" stroke="#A32929" stroke-linecap="round" stroke-linejoin="round"/>
<path d="M16.2206 9C15.5568 7.96571 14.6422 7.11443 13.5611 6.52461C12.48 5.9348 11.2672 5.62542 10.0344 5.625C9.4863 6.56969 9.15741 7.62452 9.07187 8.7122C8.98634 9.79987 9.14633 10.8928 9.54011 11.9109C8.76784 13.0444 8.35009 14.3803 8.3396 15.75V16.875C8.3396 18.6652 9.05385 20.3821 10.3252 21.648C11.5966 22.9138 13.321 23.625 15.1189 23.625H21.8983C23.6963 23.625 25.4206 22.9138 26.692 21.648C27.9634 20.3821 28.6776 18.6652 28.6776 16.875V15.75C28.6671 14.3803 28.2494 13.0444 27.4771 11.9109C27.8709 10.8928 28.0309 9.79987 27.9454 8.7122C27.8598 7.62452 27.5309 6.56969 26.9828 5.625C25.75 5.62542 24.5372 5.9348 23.4561 6.52461C22.375 7.11443 21.4604 7.96571 20.7967 9H16.2206Z" stroke="#A32929" stroke-linecap="round" stroke-linejoin="round"/>
</svg>
