<svg width="48" height="48" viewBox="0 0 48 48" fill="none" xmlns="http://www.w3.org/2000/svg">
<path d="M28.5 39V30C28.5 29.6022 28.342 29.2206 28.0607 28.9393C27.7794 28.658 27.3978 28.5 27 28.5H21C20.6022 28.5 20.2206 28.658 19.9393 28.9393C19.658 29.2206 19.5 29.6022 19.5 30V39C19.5 39.3978 19.342 39.7794 19.0607 40.0607C18.7794 40.342 18.3978 40.5 18 40.5H9C8.60218 40.5 8.22064 40.342 7.93934 40.0607C7.65804 39.7794 7.5 39.3978 7.5 39V21.6563C7.50336 21.4487 7.54822 21.2438 7.63194 21.0539C7.71567 20.8639 7.83656 20.6926 7.9875 20.55L22.9875 6.91876C23.264 6.66578 23.6252 6.52548 24 6.52548C24.3748 6.52548 24.736 6.66578 25.0125 6.91876L40.0125 20.55C40.1634 20.6926 40.2843 20.8639 40.3681 21.0539C40.4518 21.2438 40.4966 21.4487 40.5 21.6563V39C40.5 39.3978 40.342 39.7794 40.0607 40.0607C39.7794 40.342 39.3978 40.5 39 40.5H30C29.6022 40.5 29.2206 40.342 28.9393 40.0607C28.658 39.7794 28.5 39.3978 28.5 39Z" fill="#A32929" stroke="#A32929" stroke-linecap="round" stroke-linejoin="round"/>
</svg>
