<svg width="37" height="36" viewBox="0 0 37 36" fill="none" xmlns="http://www.w3.org/2000/svg">
<path d="M29.9507 5.0625H6.22303C5.59901 5.0625 5.09314 5.56618 5.09314 6.1875V29.8125C5.09314 30.4338 5.59901 30.9375 6.22303 30.9375H29.9507C30.5748 30.9375 31.0806 30.4338 31.0806 29.8125V6.1875C31.0806 5.56618 30.5748 5.0625 29.9507 5.0625Z" stroke="#A32929" stroke-linecap="round" stroke-linejoin="round"/>
<path d="M16.957 15.75V24.75" stroke="#A32929" stroke-linecap="round" stroke-linejoin="round"/>
<path d="M12.4375 15.75V24.75" stroke="#A32929" stroke-linecap="round" stroke-linejoin="round"/>
<path d="M16.957 19.6875C16.957 18.6432 17.3737 17.6417 18.1153 16.9033C18.8569 16.1648 19.8628 15.75 20.9117 15.75C21.9605 15.75 22.9664 16.1648 23.708 16.9033C24.4496 17.6417 24.8663 18.6432 24.8663 19.6875V24.75" stroke="#A32929" stroke-linecap="round" stroke-linejoin="round"/>
<path d="M12.4375 12.375C13.0615 12.375 13.5674 11.8713 13.5674 11.25C13.5674 10.6287 13.0615 10.125 12.4375 10.125C11.8135 10.125 11.3076 10.6287 11.3076 11.25C11.3076 11.8713 11.8135 12.375 12.4375 12.375Z" fill="#A32929"/>
</svg>
