<svg width="486" height="120" viewBox="0 0 486 120" fill="none" xmlns="http://www.w3.org/2000/svg">
<rect width="486" height="120" rx="15" fill="url(#paint0_linear_85_121)"/>
<path d="M90.92 71.74V75H74.66V46.34H78.52V71.74H90.92ZM98.9269 54.74V75H95.3669V54.74H98.9269ZM99.6869 48.38C99.6869 48.7267 99.6135 49.0533 99.4669 49.36C99.3335 49.6533 99.1469 49.92 98.9069 50.16C98.6802 50.3867 98.4069 50.5667 98.0869 50.7C97.7802 50.8333 97.4535 50.9 97.1069 50.9C96.7602 50.9 96.4335 50.8333 96.1269 50.7C95.8335 50.5667 95.5735 50.3867 95.3469 50.16C95.1202 49.92 94.9402 49.6533 94.8069 49.36C94.6735 49.0533 94.6069 48.7267 94.6069 48.38C94.6069 48.0333 94.6735 47.7067 94.8069 47.4C94.9402 47.08 95.1202 46.8067 95.3469 46.58C95.5735 46.34 95.8335 46.1533 96.1269 46.02C96.4335 45.8867 96.7602 45.82 97.1069 45.82C97.4535 45.82 97.7802 45.8867 98.0869 46.02C98.4069 46.1533 98.6802 46.34 98.9069 46.58C99.1469 46.8067 99.3335 47.08 99.4669 47.4C99.6135 47.7067 99.6869 48.0333 99.6869 48.38ZM117.376 58.08C117.216 58.3733 116.97 58.52 116.636 58.52C116.436 58.52 116.21 58.4467 115.956 58.3C115.703 58.1533 115.39 57.9933 115.016 57.82C114.656 57.6333 114.223 57.4667 113.716 57.32C113.21 57.16 112.61 57.08 111.916 57.08C111.316 57.08 110.776 57.16 110.296 57.32C109.816 57.4667 109.403 57.6733 109.056 57.94C108.723 58.2067 108.463 58.52 108.276 58.88C108.103 59.2267 108.016 59.6067 108.016 60.02C108.016 60.54 108.163 60.9733 108.456 61.32C108.763 61.6667 109.163 61.9667 109.656 62.22C110.15 62.4733 110.71 62.7 111.336 62.9C111.963 63.0867 112.603 63.2933 113.256 63.52C113.923 63.7333 114.57 63.9733 115.196 64.24C115.823 64.5067 116.383 64.84 116.876 65.24C117.37 65.64 117.763 66.1333 118.056 66.72C118.363 67.2933 118.516 67.9867 118.516 68.8C118.516 69.7333 118.35 70.6 118.016 71.4C117.683 72.1867 117.19 72.8733 116.536 73.46C115.883 74.0333 115.083 74.4867 114.136 74.82C113.19 75.1533 112.096 75.32 110.856 75.32C109.443 75.32 108.163 75.0933 107.016 74.64C105.87 74.1733 104.896 73.58 104.096 72.86L104.936 71.5C105.043 71.3267 105.17 71.1933 105.316 71.1C105.463 71.0067 105.65 70.96 105.876 70.96C106.116 70.96 106.37 71.0533 106.636 71.24C106.903 71.4267 107.223 71.6333 107.596 71.86C107.983 72.0867 108.45 72.2933 108.996 72.48C109.543 72.6667 110.223 72.76 111.036 72.76C111.73 72.76 112.336 72.6733 112.856 72.5C113.376 72.3133 113.81 72.0667 114.156 71.76C114.503 71.4533 114.756 71.1 114.916 70.7C115.09 70.3 115.176 69.8733 115.176 69.42C115.176 68.86 115.023 68.4 114.716 68.04C114.423 67.6667 114.03 67.3533 113.536 67.1C113.043 66.8333 112.476 66.6067 111.836 66.42C111.21 66.22 110.563 66.0133 109.896 65.8C109.243 65.5867 108.596 65.3467 107.956 65.08C107.33 64.8 106.77 64.4533 106.276 64.04C105.783 63.6267 105.383 63.12 105.076 62.52C104.783 61.9067 104.636 61.1667 104.636 60.3C104.636 59.5267 104.796 58.7867 105.116 58.08C105.436 57.36 105.903 56.7333 106.516 56.2C107.13 55.6533 107.883 55.22 108.776 54.9C109.67 54.58 110.69 54.42 111.836 54.42C113.17 54.42 114.363 54.6333 115.416 55.06C116.483 55.4733 117.403 56.0467 118.176 56.78L117.376 58.08ZM129.901 75.32C128.301 75.32 127.068 74.8733 126.201 73.98C125.348 73.0867 124.921 71.8 124.921 70.12V57.72H122.481C122.268 57.72 122.088 57.66 121.941 57.54C121.794 57.4067 121.721 57.2067 121.721 56.94V55.52L125.041 55.1L125.861 48.84C125.901 48.64 125.988 48.48 126.121 48.36C126.268 48.2267 126.454 48.16 126.681 48.16H128.481V55.14H134.341V57.72H128.481V69.88C128.481 70.7333 128.688 71.3667 129.101 71.78C129.514 72.1933 130.048 72.4 130.701 72.4C131.074 72.4 131.394 72.3533 131.661 72.26C131.941 72.1533 132.181 72.04 132.381 71.92C132.581 71.8 132.748 71.6933 132.881 71.6C133.028 71.4933 133.154 71.44 133.261 71.44C133.448 71.44 133.614 71.5533 133.761 71.78L134.801 73.48C134.188 74.0533 133.448 74.5067 132.581 74.84C131.714 75.16 130.821 75.32 129.901 75.32ZM149.797 65.88C148.157 65.9333 146.757 66.0667 145.597 66.28C144.45 66.48 143.51 66.7467 142.777 67.08C142.057 67.4133 141.53 67.8067 141.197 68.26C140.877 68.7133 140.717 69.22 140.717 69.78C140.717 70.3133 140.804 70.7733 140.977 71.16C141.15 71.5467 141.384 71.8667 141.677 72.12C141.984 72.36 142.337 72.54 142.737 72.66C143.15 72.7667 143.59 72.82 144.057 72.82C144.684 72.82 145.257 72.76 145.777 72.64C146.297 72.5067 146.784 72.32 147.237 72.08C147.704 71.84 148.144 71.5533 148.557 71.22C148.984 70.8867 149.397 70.5067 149.797 70.08V65.88ZM138.297 57.6C139.417 56.52 140.624 55.7133 141.917 55.18C143.21 54.6467 144.644 54.38 146.217 54.38C147.35 54.38 148.357 54.5667 149.237 54.94C150.117 55.3133 150.857 55.8333 151.457 56.5C152.057 57.1667 152.51 57.9733 152.817 58.92C153.124 59.8667 153.277 60.9067 153.277 62.04V75H151.697C151.35 75 151.084 74.9467 150.897 74.84C150.71 74.72 150.564 74.4933 150.457 74.16L150.057 72.24C149.524 72.7333 149.004 73.1733 148.497 73.56C147.99 73.9333 147.457 74.2533 146.897 74.52C146.337 74.7733 145.737 74.9667 145.097 75.1C144.47 75.2467 143.77 75.32 142.997 75.32C142.21 75.32 141.47 75.2133 140.777 75C140.084 74.7733 139.477 74.44 138.957 74C138.45 73.56 138.044 73.0067 137.737 72.34C137.444 71.66 137.297 70.86 137.297 69.94C137.297 69.14 137.517 68.3733 137.957 67.64C138.397 66.8933 139.11 66.2333 140.097 65.66C141.084 65.0867 142.37 64.62 143.957 64.26C145.544 63.8867 147.49 63.6733 149.797 63.62V62.04C149.797 60.4667 149.457 59.28 148.777 58.48C148.097 57.6667 147.104 57.26 145.797 57.26C144.917 57.26 144.177 57.3733 143.577 57.6C142.99 57.8133 142.477 58.06 142.037 58.34C141.61 58.6067 141.237 58.8533 140.917 59.08C140.61 59.2933 140.304 59.4 139.997 59.4C139.757 59.4 139.55 59.34 139.377 59.22C139.204 59.0867 139.057 58.9267 138.937 58.74L138.297 57.6ZM183.734 59.56C183.067 58.6667 182.347 58.0467 181.574 57.7C180.801 57.34 179.934 57.16 178.974 57.16C177.094 57.16 175.647 57.8333 174.634 59.18C173.621 60.5267 173.114 62.4467 173.114 64.94C173.114 66.26 173.227 67.3933 173.454 68.34C173.681 69.2733 174.014 70.0467 174.454 70.66C174.894 71.26 175.434 71.7 176.074 71.98C176.714 72.26 177.441 72.4 178.254 72.4C179.427 72.4 180.447 72.1333 181.314 71.6C182.194 71.0667 183.001 70.3133 183.734 69.34V59.56ZM187.294 45.54V75H185.174C184.667 75 184.347 74.7533 184.214 74.26L183.894 71.8C183.027 72.84 182.041 73.68 180.934 74.32C179.827 74.96 178.547 75.28 177.094 75.28C175.934 75.28 174.881 75.06 173.934 74.62C172.987 74.1667 172.181 73.5067 171.514 72.64C170.847 71.7733 170.334 70.6933 169.974 69.4C169.614 68.1067 169.434 66.62 169.434 64.94C169.434 63.4467 169.634 62.06 170.034 60.78C170.434 59.4867 171.007 58.3667 171.754 57.42C172.501 56.4733 173.414 55.7333 174.494 55.2C175.587 54.6533 176.814 54.38 178.174 54.38C179.414 54.38 180.474 54.5933 181.354 55.02C182.247 55.4333 183.041 56.0133 183.734 56.76V45.54H187.294ZM207.277 62.66C207.277 61.8333 207.157 61.08 206.917 60.4C206.69 59.7067 206.35 59.1133 205.897 58.62C205.457 58.1133 204.917 57.7267 204.277 57.46C203.637 57.18 202.91 57.04 202.097 57.04C200.39 57.04 199.037 57.54 198.037 58.54C197.05 59.5267 196.437 60.9 196.197 62.66H207.277ZM210.157 72.16C209.717 72.6933 209.19 73.16 208.577 73.56C207.964 73.9467 207.304 74.2667 206.597 74.52C205.904 74.7733 205.184 74.96 204.437 75.08C203.69 75.2133 202.95 75.28 202.217 75.28C200.817 75.28 199.524 75.0467 198.337 74.58C197.164 74.1 196.144 73.4067 195.277 72.5C194.424 71.58 193.757 70.4467 193.277 69.1C192.797 67.7533 192.557 66.2067 192.557 64.46C192.557 63.0467 192.77 61.7267 193.197 60.5C193.637 59.2733 194.264 58.2133 195.077 57.32C195.89 56.4133 196.884 55.7067 198.057 55.2C199.23 54.68 200.55 54.42 202.017 54.42C203.23 54.42 204.35 54.6267 205.377 55.04C206.417 55.44 207.31 56.0267 208.057 56.8C208.817 57.56 209.41 58.5067 209.837 59.64C210.264 60.76 210.477 62.04 210.477 63.48C210.477 64.04 210.417 64.4133 210.297 64.6C210.177 64.7867 209.95 64.88 209.617 64.88H196.077C196.117 66.16 196.29 67.2733 196.597 68.22C196.917 69.1667 197.357 69.96 197.917 70.6C198.477 71.2267 199.144 71.7 199.917 72.02C200.69 72.3267 201.557 72.48 202.517 72.48C203.41 72.48 204.177 72.38 204.817 72.18C205.47 71.9667 206.03 71.74 206.497 71.5C206.964 71.26 207.35 71.04 207.657 70.84C207.977 70.6267 208.25 70.52 208.477 70.52C208.77 70.52 208.997 70.6333 209.157 70.86L210.157 72.16ZM241.416 64.36L236.916 52.7C236.783 52.3533 236.643 51.9533 236.496 51.5C236.349 51.0333 236.209 50.54 236.076 50.02C235.796 51.1 235.509 52 235.216 52.72L230.716 64.36H241.416ZM249.496 75H246.496C246.149 75 245.869 74.9133 245.656 74.74C245.443 74.5667 245.283 74.3467 245.176 74.08L242.496 67.16H229.636L226.956 74.08C226.876 74.32 226.723 74.5333 226.496 74.72C226.269 74.9067 225.989 75 225.656 75H222.656L234.116 46.34H238.036L249.496 75ZM259.446 75.32C257.846 75.32 256.613 74.8733 255.746 73.98C254.893 73.0867 254.466 71.8 254.466 70.12V57.72H252.026C251.813 57.72 251.633 57.66 251.486 57.54C251.34 57.4067 251.266 57.2067 251.266 56.94V55.52L254.586 55.1L255.406 48.84C255.446 48.64 255.533 48.48 255.666 48.36C255.813 48.2267 256 48.16 256.226 48.16H258.026V55.14H263.886V57.72H258.026V69.88C258.026 70.7333 258.233 71.3667 258.646 71.78C259.06 72.1933 259.593 72.4 260.246 72.4C260.62 72.4 260.94 72.3533 261.206 72.26C261.486 72.1533 261.726 72.04 261.926 71.92C262.126 71.8 262.293 71.6933 262.426 71.6C262.573 71.4933 262.7 71.44 262.806 71.44C262.993 71.44 263.16 71.5533 263.306 71.78L264.346 73.48C263.733 74.0533 262.993 74.5067 262.126 74.84C261.26 75.16 260.366 75.32 259.446 75.32ZM271.322 54.74V75H267.762V54.74H271.322ZM272.082 48.38C272.082 48.7267 272.009 49.0533 271.862 49.36C271.729 49.6533 271.542 49.92 271.302 50.16C271.076 50.3867 270.802 50.5667 270.482 50.7C270.176 50.8333 269.849 50.9 269.502 50.9C269.156 50.9 268.829 50.8333 268.522 50.7C268.229 50.5667 267.969 50.3867 267.742 50.16C267.516 49.92 267.336 49.6533 267.202 49.36C267.069 49.0533 267.002 48.7267 267.002 48.38C267.002 48.0333 267.069 47.7067 267.202 47.4C267.336 47.08 267.516 46.8067 267.742 46.58C267.969 46.34 268.229 46.1533 268.522 46.02C268.829 45.8867 269.156 45.82 269.502 45.82C269.849 45.82 270.176 45.8867 270.482 46.02C270.802 46.1533 271.076 46.34 271.302 46.58C271.542 46.8067 271.729 47.08 271.862 47.4C272.009 47.7067 272.082 48.0333 272.082 48.38ZM295.332 54.74L287.072 75H283.872L275.612 54.74H278.512C278.805 54.74 279.045 54.8133 279.232 54.96C279.418 55.1067 279.545 55.28 279.612 55.48L284.752 68.52C284.912 69.0133 285.052 69.4933 285.172 69.96C285.292 70.4267 285.405 70.8933 285.512 71.36C285.618 70.8933 285.732 70.4267 285.852 69.96C285.972 69.4933 286.118 69.0133 286.292 68.52L291.492 55.48C291.572 55.2667 291.705 55.0933 291.892 54.96C292.078 54.8133 292.298 54.74 292.552 54.74H295.332ZM303.157 54.74V75H299.597V54.74H303.157ZM303.917 48.38C303.917 48.7267 303.843 49.0533 303.697 49.36C303.563 49.6533 303.377 49.92 303.137 50.16C302.91 50.3867 302.637 50.5667 302.317 50.7C302.01 50.8333 301.683 50.9 301.337 50.9C300.99 50.9 300.663 50.8333 300.357 50.7C300.063 50.5667 299.803 50.3867 299.577 50.16C299.35 49.92 299.17 49.6533 299.037 49.36C298.903 49.0533 298.837 48.7267 298.837 48.38C298.837 48.0333 298.903 47.7067 299.037 47.4C299.17 47.08 299.35 46.8067 299.577 46.58C299.803 46.34 300.063 46.1533 300.357 46.02C300.663 45.8867 300.99 45.82 301.337 45.82C301.683 45.82 302.01 45.8867 302.317 46.02C302.637 46.1533 302.91 46.34 303.137 46.58C303.377 46.8067 303.563 47.08 303.697 47.4C303.843 47.7067 303.917 48.0333 303.917 48.38ZM323.006 59.56C322.339 58.6667 321.619 58.0467 320.846 57.7C320.073 57.34 319.206 57.16 318.246 57.16C316.366 57.16 314.919 57.8333 313.906 59.18C312.893 60.5267 312.386 62.4467 312.386 64.94C312.386 66.26 312.499 67.3933 312.726 68.34C312.953 69.2733 313.286 70.0467 313.726 70.66C314.166 71.26 314.706 71.7 315.346 71.98C315.986 72.26 316.713 72.4 317.526 72.4C318.699 72.4 319.719 72.1333 320.586 71.6C321.466 71.0667 322.273 70.3133 323.006 69.34V59.56ZM326.566 45.54V75H324.446C323.939 75 323.619 74.7533 323.486 74.26L323.166 71.8C322.299 72.84 321.313 73.68 320.206 74.32C319.099 74.96 317.819 75.28 316.366 75.28C315.206 75.28 314.153 75.06 313.206 74.62C312.259 74.1667 311.453 73.5067 310.786 72.64C310.119 71.7733 309.606 70.6933 309.246 69.4C308.886 68.1067 308.706 66.62 308.706 64.94C308.706 63.4467 308.906 62.06 309.306 60.78C309.706 59.4867 310.279 58.3667 311.026 57.42C311.773 56.4733 312.686 55.7333 313.766 55.2C314.859 54.6533 316.086 54.38 317.446 54.38C318.686 54.38 319.746 54.5933 320.626 55.02C321.519 55.4333 322.313 56.0133 323.006 56.76V45.54H326.566ZM343.969 65.88C342.329 65.9333 340.929 66.0667 339.769 66.28C338.622 66.48 337.682 66.7467 336.949 67.08C336.229 67.4133 335.702 67.8067 335.369 68.26C335.049 68.7133 334.889 69.22 334.889 69.78C334.889 70.3133 334.975 70.7733 335.149 71.16C335.322 71.5467 335.555 71.8667 335.849 72.12C336.155 72.36 336.509 72.54 336.909 72.66C337.322 72.7667 337.762 72.82 338.229 72.82C338.855 72.82 339.429 72.76 339.949 72.64C340.469 72.5067 340.955 72.32 341.409 72.08C341.875 71.84 342.315 71.5533 342.729 71.22C343.155 70.8867 343.569 70.5067 343.969 70.08V65.88ZM332.469 57.6C333.589 56.52 334.795 55.7133 336.089 55.18C337.382 54.6467 338.815 54.38 340.389 54.38C341.522 54.38 342.529 54.5667 343.409 54.94C344.289 55.3133 345.029 55.8333 345.629 56.5C346.229 57.1667 346.682 57.9733 346.989 58.92C347.295 59.8667 347.449 60.9067 347.449 62.04V75H345.869C345.522 75 345.255 74.9467 345.069 74.84C344.882 74.72 344.735 74.4933 344.629 74.16L344.229 72.24C343.695 72.7333 343.175 73.1733 342.669 73.56C342.162 73.9333 341.629 74.2533 341.069 74.52C340.509 74.7733 339.909 74.9667 339.269 75.1C338.642 75.2467 337.942 75.32 337.169 75.32C336.382 75.32 335.642 75.2133 334.949 75C334.255 74.7733 333.649 74.44 333.129 74C332.622 73.56 332.215 73.0067 331.909 72.34C331.615 71.66 331.469 70.86 331.469 69.94C331.469 69.14 331.689 68.3733 332.129 67.64C332.569 66.8933 333.282 66.2333 334.269 65.66C335.255 65.0867 336.542 64.62 338.129 64.26C339.715 63.8867 341.662 63.6733 343.969 63.62V62.04C343.969 60.4667 343.629 59.28 342.949 58.48C342.269 57.6667 341.275 57.26 339.969 57.26C339.089 57.26 338.349 57.3733 337.749 57.6C337.162 57.8133 336.649 58.06 336.209 58.34C335.782 58.6067 335.409 58.8533 335.089 59.08C334.782 59.2933 334.475 59.4 334.169 59.4C333.929 59.4 333.722 59.34 333.549 59.22C333.375 59.0867 333.229 58.9267 333.109 58.74L332.469 57.6ZM366.872 59.56C366.205 58.6667 365.485 58.0467 364.712 57.7C363.938 57.34 363.072 57.16 362.112 57.16C360.232 57.16 358.785 57.8333 357.772 59.18C356.758 60.5267 356.252 62.4467 356.252 64.94C356.252 66.26 356.365 67.3933 356.592 68.34C356.818 69.2733 357.152 70.0467 357.592 70.66C358.032 71.26 358.572 71.7 359.212 71.98C359.852 72.26 360.578 72.4 361.392 72.4C362.565 72.4 363.585 72.1333 364.452 71.6C365.332 71.0667 366.138 70.3133 366.872 69.34V59.56ZM370.432 45.54V75H368.312C367.805 75 367.485 74.7533 367.352 74.26L367.032 71.8C366.165 72.84 365.178 73.68 364.072 74.32C362.965 74.96 361.685 75.28 360.232 75.28C359.072 75.28 358.018 75.06 357.072 74.62C356.125 74.1667 355.318 73.5067 354.652 72.64C353.985 71.7733 353.472 70.6933 353.112 69.4C352.752 68.1067 352.572 66.62 352.572 64.94C352.572 63.4467 352.772 62.06 353.172 60.78C353.572 59.4867 354.145 58.3667 354.892 57.42C355.638 56.4733 356.552 55.7333 357.632 55.2C358.725 54.6533 359.952 54.38 361.312 54.38C362.552 54.38 363.612 54.5933 364.492 55.02C365.385 55.4333 366.178 56.0133 366.872 56.76V45.54H370.432ZM390.414 62.66C390.414 61.8333 390.294 61.08 390.054 60.4C389.828 59.7067 389.488 59.1133 389.034 58.62C388.594 58.1133 388.054 57.7267 387.414 57.46C386.774 57.18 386.048 57.04 385.234 57.04C383.528 57.04 382.174 57.54 381.174 58.54C380.188 59.5267 379.574 60.9 379.334 62.66H390.414ZM393.294 72.16C392.854 72.6933 392.328 73.16 391.714 73.56C391.101 73.9467 390.441 74.2667 389.734 74.52C389.041 74.7733 388.321 74.96 387.574 75.08C386.828 75.2133 386.088 75.28 385.354 75.28C383.954 75.28 382.661 75.0467 381.474 74.58C380.301 74.1 379.281 73.4067 378.414 72.5C377.561 71.58 376.894 70.4467 376.414 69.1C375.934 67.7533 375.694 66.2067 375.694 64.46C375.694 63.0467 375.908 61.7267 376.334 60.5C376.774 59.2733 377.401 58.2133 378.214 57.32C379.028 56.4133 380.021 55.7067 381.194 55.2C382.368 54.68 383.688 54.42 385.154 54.42C386.368 54.42 387.488 54.6267 388.514 55.04C389.554 55.44 390.448 56.0267 391.194 56.8C391.954 57.56 392.548 58.5067 392.974 59.64C393.401 60.76 393.614 62.04 393.614 63.48C393.614 64.04 393.554 64.4133 393.434 64.6C393.314 64.7867 393.088 64.88 392.754 64.88H379.214C379.254 66.16 379.428 67.2733 379.734 68.22C380.054 69.1667 380.494 69.96 381.054 70.6C381.614 71.2267 382.281 71.7 383.054 72.02C383.828 72.3267 384.694 72.48 385.654 72.48C386.548 72.48 387.314 72.38 387.954 72.18C388.608 71.9667 389.168 71.74 389.634 71.5C390.101 71.26 390.488 71.04 390.794 70.84C391.114 70.6267 391.388 70.52 391.614 70.52C391.908 70.52 392.134 70.6333 392.294 70.86L393.294 72.16ZM410.587 58.08C410.427 58.3733 410.181 58.52 409.847 58.52C409.647 58.52 409.421 58.4467 409.167 58.3C408.914 58.1533 408.601 57.9933 408.227 57.82C407.867 57.6333 407.434 57.4667 406.927 57.32C406.421 57.16 405.821 57.08 405.127 57.08C404.527 57.08 403.987 57.16 403.507 57.32C403.027 57.4667 402.614 57.6733 402.267 57.94C401.934 58.2067 401.674 58.52 401.487 58.88C401.314 59.2267 401.227 59.6067 401.227 60.02C401.227 60.54 401.374 60.9733 401.667 61.32C401.974 61.6667 402.374 61.9667 402.867 62.22C403.361 62.4733 403.921 62.7 404.547 62.9C405.174 63.0867 405.814 63.2933 406.467 63.52C407.134 63.7333 407.781 63.9733 408.407 64.24C409.034 64.5067 409.594 64.84 410.087 65.24C410.581 65.64 410.974 66.1333 411.267 66.72C411.574 67.2933 411.727 67.9867 411.727 68.8C411.727 69.7333 411.561 70.6 411.227 71.4C410.894 72.1867 410.401 72.8733 409.747 73.46C409.094 74.0333 408.294 74.4867 407.347 74.82C406.401 75.1533 405.307 75.32 404.067 75.32C402.654 75.32 401.374 75.0933 400.227 74.64C399.081 74.1733 398.107 73.58 397.307 72.86L398.147 71.5C398.254 71.3267 398.381 71.1933 398.527 71.1C398.674 71.0067 398.861 70.96 399.087 70.96C399.327 70.96 399.581 71.0533 399.847 71.24C400.114 71.4267 400.434 71.6333 400.807 71.86C401.194 72.0867 401.661 72.2933 402.207 72.48C402.754 72.6667 403.434 72.76 404.247 72.76C404.941 72.76 405.547 72.6733 406.067 72.5C406.587 72.3133 407.021 72.0667 407.367 71.76C407.714 71.4533 407.967 71.1 408.127 70.7C408.301 70.3 408.387 69.8733 408.387 69.42C408.387 68.86 408.234 68.4 407.927 68.04C407.634 67.6667 407.241 67.3533 406.747 67.1C406.254 66.8333 405.687 66.6067 405.047 66.42C404.421 66.22 403.774 66.0133 403.107 65.8C402.454 65.5867 401.807 65.3467 401.167 65.08C400.541 64.8 399.981 64.4533 399.487 64.04C398.994 63.6267 398.594 63.12 398.287 62.52C397.994 61.9067 397.847 61.1667 397.847 60.3C397.847 59.5267 398.007 58.7867 398.327 58.08C398.647 57.36 399.114 56.7333 399.727 56.2C400.341 55.6533 401.094 55.22 401.987 54.9C402.881 54.58 403.901 54.42 405.047 54.42C406.381 54.42 407.574 54.6333 408.627 55.06C409.694 55.4733 410.614 56.0467 411.387 56.78L410.587 58.08Z" fill="white"/>
<defs>
<linearGradient id="paint0_linear_85_121" x1="9.40135e-07" y1="11.5" x2="486" y2="120" gradientUnits="userSpaceOnUse">
<stop stop-color="#6100FF"/>
<stop offset="1" stop-color="#116B71"/>
</linearGradient>
</defs>
</svg>
